<?xml version="1.0" encoding="utf-8"?>
<!-- Generator: Adobe Illustrator 22.0.0, SVG Export Plug-In . SVG Version: 6.00 Build 0)  -->
<svg version="1.1" id="Layer_1" xmlns="http://www.w3.org/2000/svg" xmlns:xlink="http://www.w3.org/1999/xlink" x="0px" y="0px"
	 viewBox="0 0 394 198" style="enable-background:new 0 0 394 198;" xml:space="preserve">
<style type="text/css">
	.st0{fill:none;}
	.st1{font-family:'Helvetica';}
	.st2{font-size:18px;}
	.st3{fill:none;stroke:#000000;stroke-miterlimit:10;stroke-dasharray:3,3;}
	.st4{fill:none;stroke:#000000;stroke-miterlimit:10;}
	.st5{stroke:#000000;stroke-miterlimit:10;}
	.st6{fill:#E6E6E6;stroke:#000000;stroke-miterlimit:10;}
	.st7{fill:#E6E6E6;stroke:#000000;}
</style>
<path class="st0" d="z"/>
<g>
	<rect x="208.5" y="142" pointer-events="all" class="st0" width="40" height="20"/>
	<g transform="translate(-0.5 -0.5)">
		<text transform="matrix(1 0 0 1 219.0034 157.5)" class="st1 st2">-w</text>
	</g>
	<path pointer-events="stroke" class="st3" d="M0.5,113.5l28,0.1"/>
	<path pointer-events="stroke" class="st4" d="M242,113.5h112.2"/>
	<path pointer-events="all" class="st5" d="M359.4,113.5l-7,3.5l1.8-3.5l-1.8-3.5L359.4,113.5z"/>
	<path pointer-events="all" class="st6" d="M241.8,86l60,28l-60,28V86z"/>
	<path pointer-events="stroke" class="st4" d="M242,113.5l-0.4-81.6"/>
	<path pointer-events="all" class="st5" d="M241.5,26.6l3.5,7l-3.5-1.7l-3.5,1.8L241.5,26.6z"/>
	<rect x="24.9" y="85.7" pointer-events="all" class="st7" width="217.6" height="56.6"/>
	<rect x="223" y="0.5" pointer-events="all" class="st0" width="40" height="20"/>
	<g transform="translate(-0.5 -0.5)">
		<text transform="matrix(1 0 0 1 238 15.5)" class="st1 st2">z</text>
	</g>
	<rect x="353" y="103" pointer-events="all" class="st0" width="40" height="20"/>
	<g transform="translate(-0.5 -0.5)">
		<text transform="matrix(1 0 0 1 368 118.5)" class="st1 st2">x</text>
	</g>
	<path pointer-events="stroke" class="st4" d="M303.5,108.5v10"/>
	<rect x="283.5" y="117" pointer-events="all" class="st0" width="40" height="20"/>
	<g transform="translate(-0.5 -0.5)">
		<text transform="matrix(1 0 0 1 298.4946 132.5)" class="st1 st2">q</text>
	</g>
	<path pointer-events="stroke" class="st4" d="M237.5,85.4l9-0.1"/>
	<rect x="211.5" y="64" pointer-events="all" class="st0" width="40" height="20"/>
	<g transform="translate(-0.5 -0.5)">
		<text transform="matrix(1 0 0 1 225.0005 79.5)" class="st1 st2">w</text>
	</g>
	<path pointer-events="stroke" class="st3" d="M242.5,195.5l-0.3-53.7"/>
	<path pointer-events="stroke" class="st4" d="M238.5,142.6l9-0.1"/>
</g>
<path class="st0" d="z"/>
</svg>
